# xmcd
#
# Track frame offsets: 
#        150
#        18573
#        40336
#        54166
#        69944
#        90750
#        100852
#        116571
#        131768
#        146456
#        160532
#        176348
#        191549
#        211648
#        247320
#        272326
#
# Disc length: 3947 seconds
#
# Revision: 2
# Processed by: cddbd v1.5.2PL0 Copyright (c) Steve Scherf et al.
# Submitted via: ExactAudioCopyFreeDBPlugin 1.0
#
DISCID=ca0f6910
DTITLE=Gidon Kremer - J.S.Bach: The Sonatas and Partitas for Violin So
DTITLE=lo
DYEAR=2005
DGENRE=Classical
TTITLE0=Sonata No. 1 in G minor -  Adagio
TTITLE1=Sonata No. 1 in G minor - Fuga. Allegro
TTITLE2=Sonata No. 1 in G minor - Siciliana
TTITLE3=Sonata No. 1 in G minor - Presto
TTITLE4=Partita No. 1 in B minor - Allemande
TTITLE5=Partita No. 1 in B minor - Double
TTITLE6=Partita No. 1 in B minor - Corrente
TTITLE7=Partita No. 1 in B minor - Double. Presto
TTITLE8=Partita No. 1 in B minor - Sarabande
TTITLE9=Partita No. 1 in B minor - Double
TTITLE10=Partita No. 1 in B minor - Temop di Borea
TTITLE11=Partita No. 1 in B minor - Double
TTITLE12=Sonata No. 2 in A minor - Grave
TTITLE13=Sonata No. 2 in A minor - Fuga
TTITLE14=Sonata No. 2 in A minor - Andante
TTITLE15=Sonata No. 2 in A minor - Allegro
EXTD=
EXTT0=
EXTT1=
EXTT2=
EXTT3=
EXTT4=
EXTT5=
EXTT6=
EXTT7=
EXTT8=
EXTT9=
EXTT10=
EXTT11=
EXTT12=
EXTT13=
EXTT14=
EXTT15=
PLAYORDER=
